<svg xmlns="http://www.w3.org/2000/svg" width="1200" height="630" viewBox="0 0 1200 630" role="img" aria-label="SHIRT BLAST AR">
  <defs>
    <linearGradient id="bg" x1="0" y1="0" x2="1" y2="1">
      <stop offset="0%" stop-color="#122548"/>
      <stop offset="55%" stop-color="#0a1630"/>
      <stop offset="100%" stop-color="#070f22"/>
    </linearGradient>
    <linearGradient id="title" x1="0" y1="0" x2="0" y2="1">
      <stop offset="0%" stop-color="#f7fbff"/>
      <stop offset="100%" stop-color="#ffe566"/>
    </linearGradient>
  </defs>
  <rect width="1200" height="630" fill="url(#bg)"/>
  <circle cx="980" cy="120" r="180" fill="#3de7ff" opacity="0.12"/>
  <circle cx="180" cy="520" r="220" fill="#ff6b4a" opacity="0.14"/>
  <text x="80" y="280" font-family="Arial Black, Helvetica, sans-serif" font-size="96" letter-spacing="4" fill="url(#title)">SHIRT BLAST AR</text>
  <text x="86" y="360" font-family="Helvetica, Arial, sans-serif" font-size="36" font-weight="700" fill="#3de7ff">Tap the flying shirts before time runs out</text>
  <text x="86" y="430" font-family="Helvetica, Arial, sans-serif" font-size="28" fill="#f7fbff" opacity="0.85">iPhone Safari camera AR demo · 30 seconds</text>
  <!-- mini cannons -->
  <g transform="translate(820,400)">
    <rect x="0" y="40" width="70" height="28" rx="6" fill="#1a3470"/>
    <rect x="40" y="10" width="90" height="22" rx="8" fill="#3de7ff" transform="rotate(-16 40 21)"/>
    <circle cx="18" cy="72" r="12" fill="#ff6b4a"/>
    <circle cx="52" cy="72" r="12" fill="#ff6b4a"/>
  </g>
  <g transform="translate(940,380)">
    <rect x="0" y="40" width="70" height="28" rx="6" fill="#1a3470"/>
    <rect x="40" y="10" width="90" height="22" rx="8" fill="#3de7ff" transform="rotate(-16 40 21)"/>
    <circle cx="18" cy="72" r="12" fill="#ff6b4a"/>
    <circle cx="52" cy="72" r="12" fill="#ff6b4a"/>
  </g>
  <g transform="translate(1060,400)">
    <rect x="0" y="40" width="70" height="28" rx="6" fill="#1a3470"/>
    <rect x="40" y="10" width="90" height="22" rx="8" fill="#3de7ff" transform="rotate(-16 40 21)"/>
    <circle cx="18" cy="72" r="12" fill="#ff6b4a"/>
    <circle cx="52" cy="72" r="12" fill="#ff6b4a"/>
  </g>
</svg>
